<?xml version="1.0" encoding="UTF-8"?>
<!DOCTYPE svg PUBLIC "-//W3C//DTD SVG 1.1//EN" "http://www.w3.org/Graphics/SVG/1.1/DTD/svg11.dtd">
<svg xmlns="http://www.w3.org/2000/svg" version="1.1" width="308px" height="322px" style="shape-rendering:geometricPrecision; text-rendering:geometricPrecision; image-rendering:optimizeQuality; fill-rule:evenodd; clip-rule:evenodd" xmlns:xlink="http://www.w3.org/1999/xlink">
<g><path style="opacity:0.579" fill="#bdd7ef" d="M 155.5,17.5 C 131.167,17.5 106.833,17.5 82.5,17.5C 82.5,17.1667 82.5,16.8333 82.5,16.5C 92.7591,15.8447 103.092,15.5114 113.5,15.5C 127.701,15.2984 141.701,15.9651 155.5,17.5 Z"/></g>
<g><path style="opacity:0.384" fill="#c6dff8" d="M 156.5,17.5 C 160.458,17.2511 164.124,17.9177 167.5,19.5C 163.511,19.8836 159.845,19.217 156.5,17.5 Z"/></g>
<g><path style="opacity:1" fill="#5b9eeb" d="M 175.5,23.5 C 177.786,23.595 179.786,24.2616 181.5,25.5C 183.51,27.0231 183.844,28.8564 182.5,31C 185.167,31 187.833,31 190.5,31C 191.949,32.117 193.616,32.7837 195.5,33C 194.185,34.3946 194.519,35.3946 196.5,36C 198.473,36.4955 200.473,36.6621 202.5,36.5C 205.917,39.2546 209.583,41.588 213.5,43.5C 213.738,45.4044 214.738,46.7377 216.5,47.5C 217.252,49.7607 218.252,51.9274 219.5,54C 219.505,56.1628 218.505,57.6628 216.5,58.5C 218.798,61.1114 220.465,60.6114 221.5,57C 223.473,56.4622 224.473,57.2956 224.5,59.5C 224.471,61.0293 223.804,62.196 222.5,63C 224.724,66.3085 226.057,65.8085 226.5,61.5C 228.165,64.4903 230.498,66.8237 233.5,68.5C 233.039,70.5504 232.372,72.5504 231.5,74.5C 234.229,75.0618 235.729,76.7285 236,79.5C 236.893,78.2888 237.726,78.2888 238.5,79.5C 238.231,85.8982 241.231,88.8982 247.5,88.5C 251.843,88.0822 256.176,87.5822 260.5,87C 261.416,86.7216 262.082,86.2216 262.5,85.5C 262.833,85.5 263.167,85.5 263.5,85.5C 266.167,85.5 268.833,85.5 271.5,85.5C 271.5,86.5 271.5,87.5 271.5,88.5C 268.68,88.087 266.68,89.087 265.5,91.5C 264.5,91.5 263.5,91.5 262.5,91.5C 260.4,91.5228 258.567,90.8561 257,89.5C 256.5,89.6667 256,89.8333 255.5,90C 258.612,90.8505 258.946,92.0172 256.5,93.5C 254.119,91.6075 251.453,91.1075 248.5,92C 247.359,92.7412 247.359,93.5745 248.5,94.5C 245.5,95.1667 242.5,95.8333 239.5,96.5C 240.025,97.1924 240.692,97.6924 241.5,98C 240.833,98.1667 240.167,98.3333 239.5,98.5C 238.045,97.6102 236.711,97.6102 235.5,98.5C 233.929,96.585 231.929,95.585 229.5,95.5C 229.104,98.0444 229.771,100.211 231.5,102C 228.843,102.175 226.176,102.008 223.5,101.5C 223.5,102.833 223.5,104.167 223.5,105.5C 221.821,105.285 220.821,105.952 220.5,107.5C 213.368,109.781 206.035,111.114 198.5,111.5C 198.5,112.5 198.5,113.5 198.5,114.5C 196.409,114.682 194.409,114.348 192.5,113.5C 191.548,115.045 191.215,116.712 191.5,118.5C 187.508,118.239 183.674,118.906 180,120.5C 179.167,120.333 178.333,120.167 177.5,120C 178.711,119.107 178.711,118.274 177.5,117.5C 175.82,120.575 173.154,122.075 169.5,122C 168.167,123.333 166.833,124.667 165.5,126C 159.868,126.741 154.535,128.407 149.5,131C 149.833,131.333 150.167,131.667 150.5,132C 148.559,132.743 146.726,132.576 145,131.5C 144.517,132.448 144.351,133.448 144.5,134.5C 140.837,133.888 137.17,133.721 133.5,134C 135.439,134.908 136.439,136.408 136.5,138.5C 134.833,138.5 133.167,138.5 131.5,138.5C 130.796,136.656 129.463,136.156 127.5,137C 123.632,138.484 120.299,140.818 117.5,144C 112.918,144.291 109.251,146.124 106.5,149.5C 104.708,149.366 103.042,149.699 101.5,150.5C 99.3523,150.611 99.019,149.944 100.5,148.5C 98.604,147.534 96.604,147.201 94.5,147.5C 93.6595,138.209 92.9929,128.875 92.5,119.5C 92.7831,89.6858 93.7831,60.0191 95.5,30.5C 92.5392,27.7065 90.3725,28.3731 89,32.5C 88.3497,69.1811 88.8497,105.848 90.5,142.5C 91.3081,142.808 91.9747,143.308 92.5,144C 91.2899,145.039 90.2899,146.206 89.5,147.5C 88.5041,147.414 87.6708,147.748 87,148.5C 87.174,139.081 86.674,129.414 85.5,119.5C 85.3204,115.489 85.987,111.656 87.5,108C 87.2888,83.4389 87.2888,59.2722 87.5,35.5C 86.9649,33.739 85.9649,32.4057 84.5,31.5C 84.5,27.1667 84.5,22.8333 84.5,18.5C 106.836,18.3334 129.169,18.5 151.5,19C 159.411,20.7525 167.411,22.2525 175.5,23.5 Z"/></g>
<g><path style="opacity:0.275" fill="#d7eafb" d="M 167.5,19.5 C 170.067,19.7215 172.401,20.3882 174.5,21.5C 171.772,21.8294 169.438,21.1628 167.5,19.5 Z"/></g>
<g><path style="opacity:0.09" fill="#dbebfb" d="M 174.5,21.5 C 180.635,22.8734 186.301,25.2067 191.5,28.5C 188.167,27.5 184.833,26.5 181.5,25.5C 179.786,24.2616 177.786,23.595 175.5,23.5C 175.167,22.8333 174.833,22.1667 174.5,21.5 Z"/></g>
<g><path style="opacity:1" fill="#6aa1de" d="M 181.5,25.5 C 184.833,26.5 188.167,27.5 191.5,28.5C 194.42,30.9699 197.754,32.9699 201.5,34.5C 201.833,35.1667 202.167,35.8333 202.5,36.5C 200.473,36.6621 198.473,36.4955 196.5,36C 194.519,35.3946 194.185,34.3946 195.5,33C 193.616,32.7837 191.949,32.117 190.5,31C 187.833,31 185.167,31 182.5,31C 183.844,28.8564 183.51,27.0231 181.5,25.5 Z"/></g>
<g><path style="opacity:0.078" fill="#dae9fa" d="M 191.5,28.5 C 195.505,29.4977 198.839,31.4977 201.5,34.5C 197.754,32.9699 194.42,30.9699 191.5,28.5 Z"/></g>
<g><path style="opacity:1" fill="#5d9cee" d="M 94.5,147.5 C 91.9624,152.361 90.2958,152.361 89.5,147.5C 90.2899,146.206 91.2899,145.039 92.5,144C 91.9747,143.308 91.3081,142.808 90.5,142.5C 88.8497,105.848 88.3497,69.1811 89,32.5C 90.3725,28.3731 92.5392,27.7065 95.5,30.5C 93.7831,60.0191 92.7831,89.6858 92.5,119.5C 92.9929,128.875 93.6595,138.209 94.5,147.5 Z"/></g>
<g><path style="opacity:0.294" fill="#d1e5f9" d="M 201.5,34.5 C 206.071,36.7376 210.071,39.7376 213.5,43.5C 209.583,41.588 205.917,39.2546 202.5,36.5C 202.167,35.8333 201.833,35.1667 201.5,34.5 Z"/></g>
<g><path style="opacity:0.377" fill="#cde1fb" d="M 82.5,16.5 C 82.5,16.8333 82.5,17.1667 82.5,17.5C 82.5,60.8333 82.5,104.167 82.5,147.5C 76.4302,151.868 69.7635,155.202 62.5,157.5C 67.7812,153.854 73.4479,150.687 79.5,148C 80.5742,147.261 81.2409,146.261 81.5,145C 81.2056,103.031 80.8722,61.3645 80.5,20C 81.0848,18.6976 81.7515,17.531 82.5,16.5 Z"/></g>
<g><path style="opacity:0.224" fill="#d8ebfc" d="M 213.5,43.5 C 217.855,45.8548 221.188,49.1881 223.5,53.5C 221.167,51.5 218.833,49.5 216.5,47.5C 214.738,46.7377 213.738,45.4044 213.5,43.5 Z"/></g>
<g><path style="opacity:0.482" fill="#cce8fb" d="M 223.5,53.5 C 225.587,54.5846 226.92,56.2512 227.5,58.5C 225.413,57.4154 224.08,55.7488 223.5,53.5 Z"/></g>
<g><path style="opacity:1" fill="#67a1e0" d="M 216.5,47.5 C 218.833,49.5 221.167,51.5 223.5,53.5C 224.08,55.7488 225.413,57.4154 227.5,58.5C 227.738,60.4044 228.738,61.7377 230.5,62.5C 230.738,64.4044 231.738,65.7377 233.5,66.5C 233.5,67.1667 233.5,67.8333 233.5,68.5C 230.498,66.8237 228.165,64.4903 226.5,61.5C 226.057,65.8085 224.724,66.3085 222.5,63C 223.804,62.196 224.471,61.0293 224.5,59.5C 224.473,57.2956 223.473,56.4622 221.5,57C 220.465,60.6114 218.798,61.1114 216.5,58.5C 218.505,57.6628 219.505,56.1628 219.5,54C 218.252,51.9274 217.252,49.7607 216.5,47.5 Z"/></g>
<g><path style="opacity:0.412" fill="#d1e9fc" d="M 227.5,58.5 C 229.262,59.2623 230.262,60.5956 230.5,62.5C 228.738,61.7377 227.738,60.4044 227.5,58.5 Z"/></g>
<g><path style="opacity:1" fill="#609de5" d="M 84.5,31.5 C 85.9649,32.4057 86.9649,33.739 87.5,35.5C 87.2888,59.2722 87.2888,83.4389 87.5,108C 85.987,111.656 85.3204,115.489 85.5,119.5C 86.674,129.414 87.174,139.081 87,148.5C 87.6708,147.748 88.5041,147.414 89.5,147.5C 90.2958,152.361 91.9624,152.361 94.5,147.5C 96.604,147.201 98.604,147.534 100.5,148.5C 99.019,149.944 99.3523,150.611 101.5,150.5C 101.167,151.167 100.833,151.833 100.5,152.5C 94.856,153.983 89.1893,155.483 83.5,157C 82.4293,157.852 81.4293,158.685 80.5,159.5C 70.2229,162.81 60.2229,166.477 50.5,170.5C 47.0136,170.705 46.0136,169.371 47.5,166.5C 51.6508,164.925 55.3175,162.591 58.5,159.5C 59.5137,158.326 60.847,157.66 62.5,157.5C 69.7635,155.202 76.4302,151.868 82.5,147.5C 83.1667,108.833 83.8333,70.1667 84.5,31.5 Z"/></g>
<g><path style="opacity:0.329" fill="#cee6f8" d="M 230.5,62.5 C 232.262,63.2623 233.262,64.5956 233.5,66.5C 231.738,65.7377 230.738,64.4044 230.5,62.5 Z"/></g>
<g><path style="opacity:0.165" fill="#d8ecfb" d="M 233.5,66.5 C 234.906,66.9731 235.573,67.9731 235.5,69.5C 234.833,69.1667 234.167,68.8333 233.5,68.5C 233.5,67.8333 233.5,67.1667 233.5,66.5 Z"/></g>
<g><path style="opacity:0.923" fill="#709ed7" d="M 82.5,17.5 C 106.833,17.5 131.167,17.5 155.5,17.5C 155.833,17.5 156.167,17.5 156.5,17.5C 159.845,19.217 163.511,19.8836 167.5,19.5C 169.438,21.1628 171.772,21.8294 174.5,21.5C 174.833,22.1667 175.167,22.8333 175.5,23.5C 167.411,22.2525 159.411,20.7525 151.5,19C 129.169,18.5 106.836,18.3334 84.5,18.5C 84.5,22.8333 84.5,27.1667 84.5,31.5C 83.8333,70.1667 83.1667,108.833 82.5,147.5C 82.5,104.167 82.5,60.8333 82.5,17.5 Z"/></g>
<g><path style="opacity:0.09" fill="#e1f8ff" d="M 235.5,69.5 C 236.906,69.9731 237.573,70.9731 237.5,72.5C 236.094,72.0269 235.427,71.0269 235.5,69.5 Z"/></g>
<g><path style="opacity:0.686" fill="#c9ddf4" d="M 237.5,72.5 C 238.674,73.5137 239.34,74.847 239.5,76.5C 237.824,75.8166 237.157,74.4832 237.5,72.5 Z"/></g>
<g><path style="opacity:0.098" fill="#ecf3fe" d="M 239.5,76.5 C 240.674,77.5137 241.34,78.847 241.5,80.5C 239.896,79.713 239.229,78.3797 239.5,76.5 Z"/></g>
<g><path style="opacity:0.722" fill="#acbfd8" d="M 296.5,81.5 C 294.435,81.5172 292.435,81.8505 290.5,82.5C 287.713,81.5233 284.713,81.19 281.5,81.5C 283.265,80.5386 285.265,80.2053 287.5,80.5C 291.163,79.8875 294.83,79.7208 298.5,80C 297.584,80.2784 296.918,80.7784 296.5,81.5 Z"/></g>
<g><path style="opacity:0.078" fill="#eef3f9" d="M 296.5,81.5 C 296.918,80.7784 297.584,80.2784 298.5,80C 294.83,79.7208 291.163,79.8875 287.5,80.5C 291.823,79.1029 296.323,78.1029 301,77.5C 302.487,78.2529 302.654,79.0862 301.5,80C 299.975,81.0086 298.308,81.5086 296.5,81.5 Z"/></g>
<g><path style="opacity:0.627" fill="#c9e0f6" d="M 241.5,80.5 C 242.339,81.6412 243.006,82.9745 243.5,84.5C 245.333,84.8333 247.167,85.1667 249,85.5C 259.153,84.0019 269.32,82.6686 279.5,81.5C 274.189,82.9253 268.856,84.2586 263.5,85.5C 263.167,85.5 262.833,85.5 262.5,85.5C 256.813,85.9688 251.146,86.6354 245.5,87.5C 242.013,86.5309 240.68,84.1976 241.5,80.5 Z"/></g>
<g><path style="opacity:0.143" fill="#e7f1fc" d="M 296.5,81.5 C 293.785,83.0719 290.785,84.0719 287.5,84.5C 288.29,83.5987 289.29,82.9321 290.5,82.5C 292.435,81.8505 294.435,81.5172 296.5,81.5 Z"/></g>
<g><path style="opacity:1" fill="#75a2d9" d="M 279.5,81.5 C 280.167,81.5 280.833,81.5 281.5,81.5C 284.713,81.19 287.713,81.5233 290.5,82.5C 289.29,82.9321 288.29,83.5987 287.5,84.5C 284.284,84.3455 281.617,85.3455 279.5,87.5C 278.791,88.404 277.791,88.7373 276.5,88.5C 272.658,88.8925 268.991,89.8925 265.5,91.5C 266.68,89.087 268.68,88.087 271.5,88.5C 271.5,87.5 271.5,86.5 271.5,85.5C 268.833,85.5 266.167,85.5 263.5,85.5C 268.856,84.2586 274.189,82.9253 279.5,81.5 Z"/></g>
<g><path style="opacity:0.039" fill="#d9effc" d="M 287.5,84.5 C 285.064,85.871 282.397,86.871 279.5,87.5C 281.617,85.3455 284.284,84.3455 287.5,84.5 Z"/></g>
<g><path style="opacity:0.992" fill="#6b9fdc" d="M 233.5,68.5 C 234.167,68.8333 234.833,69.1667 235.5,69.5C 235.427,71.0269 236.094,72.0269 237.5,72.5C 237.157,74.4832 237.824,75.8166 239.5,76.5C 239.229,78.3797 239.896,79.713 241.5,80.5C 240.68,84.1976 242.013,86.5309 245.5,87.5C 251.146,86.6354 256.813,85.9688 262.5,85.5C 262.082,86.2216 261.416,86.7216 260.5,87C 256.176,87.5822 251.843,88.0822 247.5,88.5C 241.231,88.8982 238.231,85.8982 238.5,79.5C 237.726,78.2888 236.893,78.2888 236,79.5C 235.729,76.7285 234.229,75.0618 231.5,74.5C 232.372,72.5504 233.039,70.5504 233.5,68.5 Z"/></g>
<g><path style="opacity:0.067" fill="#d2e7f9" d="M 276.5,88.5 C 263.127,94.0713 249.46,99.0713 235.5,103.5C 244.618,99.7746 253.618,95.7746 262.5,91.5C 263.5,91.5 264.5,91.5 265.5,91.5C 268.991,89.8925 272.658,88.8925 276.5,88.5 Z"/></g>
<g><path style="opacity:1" fill="#629ee3" d="M 262.5,91.5 C 253.618,95.7746 244.618,99.7746 235.5,103.5C 232.169,103.018 229.503,104.018 227.5,106.5C 225.139,106.674 222.806,107.007 220.5,107.5C 220.821,105.952 221.821,105.285 223.5,105.5C 223.5,104.167 223.5,102.833 223.5,101.5C 226.176,102.008 228.843,102.175 231.5,102C 229.771,100.211 229.104,98.0444 229.5,95.5C 231.929,95.585 233.929,96.585 235.5,98.5C 236.711,97.6102 238.045,97.6102 239.5,98.5C 240.167,98.3333 240.833,98.1667 241.5,98C 240.692,97.6924 240.025,97.1924 239.5,96.5C 242.5,95.8333 245.5,95.1667 248.5,94.5C 247.359,93.5745 247.359,92.7412 248.5,92C 251.453,91.1075 254.119,91.6075 256.5,93.5C 258.946,92.0172 258.612,90.8505 255.5,90C 256,89.8333 256.5,89.6667 257,89.5C 258.567,90.8561 260.4,91.5228 262.5,91.5 Z"/></g>
<g><path style="opacity:0.42" fill="#c9def7" d="M 235.5,103.5 C 233.208,105.267 230.542,106.267 227.5,106.5C 229.503,104.018 232.169,103.018 235.5,103.5 Z"/></g>
<g><path style="opacity:0.043" fill="#d7e7f9" d="M 227.5,106.5 C 217.87,110.935 207.87,114.601 197.5,117.5C 198.058,116.21 199.058,115.377 200.5,115C 207.448,112.966 214.115,110.466 220.5,107.5C 222.806,107.007 225.139,106.674 227.5,106.5 Z"/></g>
<g><path style="opacity:1" fill="#699ede" d="M 220.5,107.5 C 214.115,110.466 207.448,112.966 200.5,115C 199.058,115.377 198.058,116.21 197.5,117.5C 195.435,117.517 193.435,117.85 191.5,118.5C 191.215,116.712 191.548,115.045 192.5,113.5C 194.409,114.348 196.409,114.682 198.5,114.5C 198.5,113.5 198.5,112.5 198.5,111.5C 206.035,111.114 213.368,109.781 220.5,107.5 Z"/></g>
<g><path style="opacity:0.545" fill="#ced3dd" d="M 260.5,119.5 C 260.611,118.883 260.944,118.383 261.5,118C 260.207,117.51 258.873,117.343 257.5,117.5C 260.617,115.552 263.951,114.886 267.5,115.5C 265.636,117.6 263.303,118.933 260.5,119.5 Z"/></g>
<g><path style="opacity:0.514" fill="#c6d0e6" d="M 257.5,117.5 C 256.833,118.167 256.167,118.833 255.5,119.5C 253.833,119.5 252.167,119.5 250.5,119.5C 252.599,118.388 254.933,117.721 257.5,117.5 Z"/></g>
<g><path style="opacity:0.788" fill="#7e8a9b" d="M 257.5,117.5 C 258.873,117.343 260.207,117.51 261.5,118C 260.944,118.383 260.611,118.883 260.5,119.5C 260.158,120.338 259.492,120.672 258.5,120.5C 257.833,120.5 257.167,120.5 256.5,120.5C 256.5,119.833 256.167,119.5 255.5,119.5C 256.167,118.833 256.833,118.167 257.5,117.5 Z"/></g>
<g><path style="opacity:0.067" fill="#dbf0fb" d="M 197.5,117.5 C 192.463,120.071 187.129,122.071 181.5,123.5C 182.167,122.833 182.833,122.167 183.5,121.5C 186.257,120.488 188.924,119.488 191.5,118.5C 193.435,117.85 195.435,117.517 197.5,117.5 Z"/></g>
<g><path style="opacity:0.494" fill="#bfd0e4" d="M 250.5,119.5 C 248.898,121.074 246.898,121.741 244.5,121.5C 246.214,120.262 248.214,119.595 250.5,119.5 Z"/></g>
<g><path style="opacity:1" fill="#66a0e1" d="M 191.5,118.5 C 188.924,119.488 186.257,120.488 183.5,121.5C 179.454,122.013 175.454,122.846 171.5,124C 170.269,125.405 168.936,126.571 167.5,127.5C 164.603,128.129 161.936,129.129 159.5,130.5C 155.452,129.829 152.452,131.163 150.5,134.5C 150.158,135.338 149.492,135.672 148.5,135.5C 144.466,135.517 140.799,136.517 137.5,138.5C 137.167,138.5 136.833,138.5 136.5,138.5C 136.439,136.408 135.439,134.908 133.5,134C 137.17,133.721 140.837,133.888 144.5,134.5C 144.351,133.448 144.517,132.448 145,131.5C 146.726,132.576 148.559,132.743 150.5,132C 150.167,131.667 149.833,131.333 149.5,131C 154.535,128.407 159.868,126.741 165.5,126C 166.833,124.667 168.167,123.333 169.5,122C 173.154,122.075 175.82,120.575 177.5,117.5C 178.711,118.274 178.711,119.107 177.5,120C 178.333,120.167 179.167,120.333 180,120.5C 183.674,118.906 187.508,118.239 191.5,118.5 Z"/></g>
<g><path style="opacity:0.275" fill="#bacbe2" d="M 256.5,120.5 C 257.167,120.5 257.833,120.5 258.5,120.5C 257.063,121.725 255.396,122.725 253.5,123.5C 252.295,124.577 251.628,125.91 251.5,127.5C 251.167,127.5 250.833,127.5 250.5,127.5C 250.421,123.509 252.421,121.176 256.5,120.5 Z"/></g>
<g><path style="opacity:0.925" fill="#8fb3dc" d="M 183.5,121.5 C 182.833,122.167 182.167,122.833 181.5,123.5C 179.786,124.738 177.786,125.405 175.5,125.5C 173.447,125.402 171.78,126.069 170.5,127.5C 169.5,127.5 168.5,127.5 167.5,127.5C 168.936,126.571 170.269,125.405 171.5,124C 175.454,122.846 179.454,122.013 183.5,121.5 Z"/></g>
<g><path style="opacity:0.063" fill="#e5f6fd" d="M 175.5,125.5 C 174.22,126.931 172.553,127.598 170.5,127.5C 171.78,126.069 173.447,125.402 175.5,125.5 Z"/></g>
<g><path style="opacity:1" fill="#2b5184" d="M 250.5,119.5 C 252.167,119.5 253.833,119.5 255.5,119.5C 256.167,119.5 256.5,119.833 256.5,120.5C 252.421,121.176 250.421,123.509 250.5,127.5C 250.676,132.88 250.342,138.213 249.5,143.5C 248.087,146.219 247.42,149.219 247.5,152.5C 247.279,155.067 246.612,157.401 245.5,159.5C 245.913,144.101 246.913,132.101 248.5,123.5C 246.473,123.338 244.473,123.505 242.5,124C 236.856,127.966 230.523,129.466 223.5,128.5C 230.465,126.041 237.465,123.708 244.5,121.5C 246.898,121.741 248.898,121.074 250.5,119.5 Z"/></g>
<g><path style="opacity:0.553" fill="#b2c6db" d="M 244.5,121.5 C 237.465,123.708 230.465,126.041 223.5,128.5C 218.224,129.755 212.891,130.755 207.5,131.5C 219.528,127.408 231.861,124.074 244.5,121.5 Z"/></g>
<g><path style="opacity:1" fill="#114a8c" d="M 245.5,159.5 C 242.169,164.137 240.169,169.471 239.5,175.5C 236.708,176.392 235.375,178.392 235.5,181.5C 234.5,181.5 233.5,181.5 232.5,181.5C 232.5,182.833 232.5,184.167 232.5,185.5C 228.266,185.406 225.933,187.406 225.5,191.5C 224.167,191.5 222.833,191.5 221.5,191.5C 221.703,193.638 222.703,195.305 224.5,196.5C 223.311,197.429 221.978,197.762 220.5,197.5C 220.5,196.5 220.5,195.5 220.5,194.5C 218.052,194.01 216.385,194.843 215.5,197C 217.628,198.987 218.628,201.487 218.5,204.5C 216.038,207.464 213.371,210.297 210.5,213C 206.403,215.37 202.736,218.203 199.5,221.5C 194.04,223.291 189.04,225.958 184.5,229.5C 183.5,229.5 182.5,229.5 181.5,229.5C 179.106,230.015 176.772,230.681 174.5,231.5C 166.838,230.168 159.172,228.834 151.5,227.5C 143.533,228.663 135.533,229.496 127.5,230C 127.5,231 127.5,232 127.5,233C 132.864,233.171 138.198,233.671 143.5,234.5C 127.338,235.167 111.338,235.833 95.5,236.5C 94.0014,235.322 93.0014,233.655 92.5,231.5C 91.5713,232.689 91.238,234.022 91.5,235.5C 89.4727,235.662 87.4727,235.495 85.5,235C 83.9836,231.966 84.3169,229.133 86.5,226.5C 85.7579,225.713 84.9246,225.047 84,224.5C 83.8316,206.662 83.3316,188.995 82.5,171.5C 82.5,170.833 82.5,170.167 82.5,169.5C 82.6107,168.883 82.944,168.383 83.5,168C 88.2847,168.268 92.2847,166.768 95.5,163.5C 100.278,161.721 105.278,160.387 110.5,159.5C 118.924,158.144 127.258,156.311 135.5,154C 138.187,153.272 140.52,152.105 142.5,150.5C 149.743,149.061 157.076,147.894 164.5,147C 166.596,145.234 168.929,143.901 171.5,143C 181.115,140.796 190.782,138.796 200.5,137C 207.611,132.669 214.778,132.503 222,136.5C 223.826,135.99 223.993,135.156 222.5,134C 221.207,133.51 219.873,133.343 218.5,133.5C 218.281,132.325 218.614,131.325 219.5,130.5C 221.026,130.006 222.359,129.339 223.5,128.5C 230.523,129.466 236.856,127.966 242.5,124C 244.473,123.505 246.473,123.338 248.5,123.5C 246.913,132.101 245.913,144.101 245.5,159.5 Z"/></g>
<g><path style="opacity:0.133" fill="#cfe6f8" d="M 167.5,127.5 C 168.5,127.5 169.5,127.5 170.5,127.5C 167.05,129.208 163.383,130.541 159.5,131.5C 159.5,131.167 159.5,130.833 159.5,130.5C 161.936,129.129 164.603,128.129 167.5,127.5 Z"/></g>
<g><path style="opacity:1" fill="#a8c6e9" d="M 159.5,130.5 C 159.5,130.833 159.5,131.167 159.5,131.5C 156.785,133.072 153.785,134.072 150.5,134.5C 152.452,131.163 155.452,129.829 159.5,130.5 Z"/></g>
<g><path style="opacity:0.573" fill="#b0c5dc" d="M 207.5,131.5 C 201.552,134.238 195.219,135.905 188.5,136.5C 194.577,134.259 200.91,132.592 207.5,131.5 Z"/></g>
<g><path style="opacity:0.173" fill="#cae2f7" d="M 148.5,135.5 C 145.203,137.601 141.537,138.935 137.5,139.5C 137.5,139.167 137.5,138.833 137.5,138.5C 140.799,136.517 144.466,135.517 148.5,135.5 Z"/></g>
<g><path style="opacity:0.612" fill="#aec2d9" d="M 188.5,136.5 C 182.949,139.39 176.949,141.057 170.5,141.5C 176.292,139.464 182.292,137.797 188.5,136.5 Z"/></g>
<g><path style="opacity:0.996" fill="#a3c4ea" d="M 131.5,138.5 C 133.167,138.5 134.833,138.5 136.5,138.5C 136.833,138.5 137.167,138.5 137.5,138.5C 137.5,138.833 137.5,139.167 137.5,139.5C 135.786,140.738 133.786,141.405 131.5,141.5C 131.5,140.5 131.5,139.5 131.5,138.5 Z"/></g>
<g><path style="opacity:1" fill="#67a0e0" d="M 131.5,138.5 C 131.5,139.5 131.5,140.5 131.5,141.5C 126.362,142.079 121.695,143.746 117.5,146.5C 113.564,146.733 109.897,147.733 106.5,149.5C 109.251,146.124 112.918,144.291 117.5,144C 120.299,140.818 123.632,138.484 127.5,137C 129.463,136.156 130.796,136.656 131.5,138.5 Z"/></g>
<g><path style="opacity:1" fill="#285081" d="M 223.5,128.5 C 222.359,129.339 221.026,130.006 219.5,130.5C 218.614,131.325 218.281,132.325 218.5,133.5C 219.873,133.343 221.207,133.51 222.5,134C 223.993,135.156 223.826,135.99 222,136.5C 214.778,132.503 207.611,132.669 200.5,137C 190.782,138.796 181.115,140.796 171.5,143C 168.929,143.901 166.596,145.234 164.5,147C 157.076,147.894 149.743,149.061 142.5,150.5C 147.292,149.236 151.958,147.569 156.5,145.5C 161.54,145.15 166.206,143.816 170.5,141.5C 176.949,141.057 182.949,139.39 188.5,136.5C 195.219,135.905 201.552,134.238 207.5,131.5C 212.891,130.755 218.224,129.755 223.5,128.5 Z"/></g>
<g><path style="opacity:0.098" fill="#e1effb" d="M 250.5,127.5 C 250.833,127.5 251.167,127.5 251.5,127.5C 251.888,134.747 251.221,141.747 249.5,148.5C 249.5,146.833 249.5,145.167 249.5,143.5C 250.342,138.213 250.676,132.88 250.5,127.5 Z"/></g>
<g><path style="opacity:0.643" fill="#b0c5da" d="M 170.5,141.5 C 166.206,143.816 161.54,145.15 156.5,145.5C 160.895,143.565 165.562,142.231 170.5,141.5 Z"/></g>
<g><path style="opacity:0.098" fill="#dbebfc" d="M 131.5,141.5 C 127.201,143.935 122.534,145.602 117.5,146.5C 121.695,143.746 126.362,142.079 131.5,141.5 Z"/></g>
<g><path style="opacity:0.443" fill="#b4c9e1" d="M 156.5,145.5 C 151.958,147.569 147.292,149.236 142.5,150.5C 141.167,150.5 139.833,150.5 138.5,150.5C 144.231,148.231 150.231,146.565 156.5,145.5 Z"/></g>
<g><path style="opacity:0.216" fill="#c7dff5" d="M 117.5,146.5 C 112.21,149.265 106.543,151.265 100.5,152.5C 100.833,151.833 101.167,151.167 101.5,150.5C 103.042,149.699 104.708,149.366 106.5,149.5C 109.897,147.733 113.564,146.733 117.5,146.5 Z"/></g>
<g><path style="opacity:0.643" fill="#6e8aa7" d="M 249.5,143.5 C 249.5,145.167 249.5,146.833 249.5,148.5C 248.833,149.833 248.167,151.167 247.5,152.5C 247.42,149.219 248.087,146.219 249.5,143.5 Z"/></g>
<g><path style="opacity:0.31" fill="#bcd0e5" d="M 138.5,150.5 C 135.201,152.483 131.534,153.483 127.5,153.5C 130.854,151.742 134.521,150.742 138.5,150.5 Z"/></g>
<g><path style="opacity:0.188" fill="#d0e6f9" d="M 100.5,152.5 C 94.1976,155.602 87.5309,157.936 80.5,159.5C 81.4293,158.685 82.4293,157.852 83.5,157C 89.1893,155.483 94.856,153.983 100.5,152.5 Z"/></g>
<g><path style="opacity:1" fill="#2a5281" d="M 138.5,150.5 C 139.833,150.5 141.167,150.5 142.5,150.5C 140.52,152.105 138.187,153.272 135.5,154C 127.258,156.311 118.924,158.144 110.5,159.5C 116.228,157.652 121.894,155.652 127.5,153.5C 131.534,153.483 135.201,152.483 138.5,150.5 Z"/></g>
<g><path style="opacity:0.059" fill="#dae7f2" d="M 249.5,148.5 C 248.851,156.782 246.518,164.449 242.5,171.5C 243.5,167.5 244.5,163.5 245.5,159.5C 246.612,157.401 247.279,155.067 247.5,152.5C 248.167,151.167 248.833,149.833 249.5,148.5 Z"/></g>
<g><path style="opacity:0.561" fill="#b2c4dc" d="M 127.5,153.5 C 121.894,155.652 116.228,157.652 110.5,159.5C 105.278,160.387 100.278,161.721 95.5,163.5C 94.1667,163.5 92.8333,163.5 91.5,163.5C 103.231,159.565 115.231,156.231 127.5,153.5 Z"/></g>
<g><path style="opacity:0.851" fill="#b0ceeb" d="M 58.5,159.5 C 55.3175,162.591 51.6508,164.925 47.5,166.5C 44.4838,167.343 41.8171,168.843 39.5,171C 38.2068,171.49 36.8734,171.657 35.5,171.5C 42.6864,166.739 50.3531,162.739 58.5,159.5 Z"/></g>
<g><path style="opacity:1" fill="#2b507f" d="M 91.5,163.5 C 92.8333,163.5 94.1667,163.5 95.5,163.5C 92.2847,166.768 88.2847,168.268 83.5,168C 82.944,168.383 82.6107,168.883 82.5,169.5C 82.1667,169.5 81.8333,169.5 81.5,169.5C 80.8333,168.833 80.1667,168.167 79.5,167.5C 83.8055,166.765 87.8055,165.432 91.5,163.5 Z"/></g>
<g><path style="opacity:1" fill="#365987" d="M 245.5,159.5 C 244.5,163.5 243.5,167.5 242.5,171.5C 241.143,172.59 240.143,173.924 239.5,175.5C 240.169,169.471 242.169,164.137 245.5,159.5 Z"/></g>
<g><path style="opacity:0.075" fill="#cde2f5" d="M 80.5,159.5 C 70.9421,164.4 60.9421,168.4 50.5,171.5C 50.5,171.167 50.5,170.833 50.5,170.5C 60.2229,166.477 70.2229,162.81 80.5,159.5 Z"/></g>
<g><path style="opacity:0.58" fill="#c4d0db" d="M 91.5,163.5 C 87.8055,165.432 83.8055,166.765 79.5,167.5C 76.1849,168.329 72.8516,169.162 69.5,170C 73.4934,170.17 77.4934,170.004 81.5,169.5C 81.5,170.5 81.5,171.5 81.5,172.5C 80.7387,171.609 79.7387,170.942 78.5,170.5C 72.9117,172.066 67.245,172.566 61.5,172C 61.8333,171.667 62.1667,171.333 62.5,171C 72.0473,168.03 81.714,165.53 91.5,163.5 Z"/></g>
<g><path style="opacity:0.729" fill="#5f768c" d="M 79.5,167.5 C 80.1667,168.167 80.8333,168.833 81.5,169.5C 77.4934,170.004 73.4934,170.17 69.5,170C 72.8516,169.162 76.1849,168.329 79.5,167.5 Z"/></g>
<g><path style="opacity:1" fill="#74a2d8" d="M 47.5,166.5 C 46.0136,169.371 47.0136,170.705 50.5,170.5C 50.5,170.833 50.5,171.167 50.5,171.5C 50.1667,171.5 49.8333,171.5 49.5,171.5C 47.1016,171.259 45.1016,171.926 43.5,173.5C 40.4261,173.873 37.4261,174.539 34.5,175.5C 33.7611,175.631 33.0944,175.464 32.5,175C 34.0629,174.241 35.0629,173.074 35.5,171.5C 36.8734,171.657 38.2068,171.49 39.5,171C 41.8171,168.843 44.4838,167.343 47.5,166.5 Z"/></g>
<g><path style="opacity:0.11" fill="#dfeffc" d="M 49.5,171.5 C 47.7857,172.738 45.7857,173.405 43.5,173.5C 45.1016,171.926 47.1016,171.259 49.5,171.5 Z"/></g>
<g><path style="opacity:0.884" fill="#95afd4" d="M 35.5,171.5 C 35.0629,173.074 34.0629,174.241 32.5,175C 33.0944,175.464 33.7611,175.631 34.5,175.5C 31.0629,177.368 27.3962,178.534 23.5,179C 26.6685,177.627 29.3352,175.793 31.5,173.5C 32.5137,172.326 33.847,171.66 35.5,171.5 Z"/></g>
<g><path style="opacity:0.055" fill="#cbdced" d="M 242.5,171.5 C 233.916,193.086 219.583,209.753 199.5,221.5C 202.736,218.203 206.403,215.37 210.5,213C 213.371,210.297 216.038,207.464 218.5,204.5C 227.403,196.255 234.403,186.589 239.5,175.5C 240.143,173.924 241.143,172.59 242.5,171.5 Z"/></g>
<g><path style="opacity:0.341" fill="#dce6f2" d="M 31.5,173.5 C 29.3352,175.793 26.6685,177.627 23.5,179C 27.3962,178.534 31.0629,177.368 34.5,175.5C 37.4261,174.539 40.4261,173.873 43.5,173.5C 32.5338,178.104 21.3671,182.438 10,186.5C 9.33333,185.833 9.33333,185.167 10,184.5C 16.8606,180.153 24.0273,176.487 31.5,173.5 Z"/></g>
<g><path style="opacity:1" fill="#1d4d88" d="M 239.5,175.5 C 234.403,186.589 227.403,196.255 218.5,204.5C 218.628,201.487 217.628,198.987 215.5,197C 216.385,194.843 218.052,194.01 220.5,194.5C 220.5,195.5 220.5,196.5 220.5,197.5C 221.978,197.762 223.311,197.429 224.5,196.5C 222.703,195.305 221.703,193.638 221.5,191.5C 222.833,191.5 224.167,191.5 225.5,191.5C 225.933,187.406 228.266,185.406 232.5,185.5C 232.5,184.167 232.5,182.833 232.5,181.5C 233.5,181.5 234.5,181.5 235.5,181.5C 235.375,178.392 236.708,176.392 239.5,175.5 Z"/></g>
<g><path style="opacity:0.444" fill="#a7bad3" d="M 81.5,169.5 C 81.8333,169.5 82.1667,169.5 82.5,169.5C 82.5,170.167 82.5,170.833 82.5,171.5C 82.5,193.5 82.5,215.5 82.5,237.5C 102.833,237.5 123.167,237.5 143.5,237.5C 123.34,238.497 103.007,238.83 82.5,238.5C 81.8826,238.389 81.3826,238.056 81,237.5C 80.1787,215.761 80.3454,194.094 81.5,172.5C 81.5,171.5 81.5,170.5 81.5,169.5 Z"/></g>
<g><path style="opacity:0.188" fill="#c1cede" d="M 199.5,221.5 C 197.073,223.558 194.407,225.391 191.5,227C 189.35,228.411 187.016,229.245 184.5,229.5C 189.04,225.958 194.04,223.291 199.5,221.5 Z"/></g>
<g><path style="opacity:1" fill="#154b89" d="M 174.5,231.5 C 174.5,231.833 174.5,232.167 174.5,232.5C 171.302,233.787 167.969,234.453 164.5,234.5C 158.824,234.334 153.157,234.501 147.5,235C 148.5,235.333 149.5,235.667 150.5,236C 132.17,236.5 113.836,236.667 95.5,236.5C 111.338,235.833 127.338,235.167 143.5,234.5C 138.198,233.671 132.864,233.171 127.5,233C 127.5,232 127.5,231 127.5,230C 135.533,229.496 143.533,228.663 151.5,227.5C 159.172,228.834 166.838,230.168 174.5,231.5 Z"/></g>
<g><path style="opacity:0.02" fill="#e3edf6" d="M 181.5,229.5 C 182.5,229.5 183.5,229.5 184.5,229.5C 183.486,230.674 182.153,231.34 180.5,231.5C 180.833,230.833 181.167,230.167 181.5,229.5 Z"/></g>
<g><path style="opacity:0.604" fill="#6486a6" d="M 181.5,229.5 C 181.167,230.167 180.833,230.833 180.5,231.5C 180.167,231.5 179.833,231.5 179.5,231.5C 177.784,231.629 176.117,231.962 174.5,232.5C 174.5,232.167 174.5,231.833 174.5,231.5C 176.772,230.681 179.106,230.015 181.5,229.5 Z"/></g>
<g><path style="opacity:0.059" fill="#cddeed" d="M 179.5,231.5 C 174.247,234.234 168.58,235.901 162.5,236.5C 163.167,235.833 163.833,235.167 164.5,234.5C 167.969,234.453 171.302,233.787 174.5,232.5C 176.117,231.962 177.784,231.629 179.5,231.5 Z"/></g>
<g><path style="opacity:0.98" fill="#234d7f" d="M 82.5,171.5 C 83.3316,188.995 83.8316,206.662 84,224.5C 84.9246,225.047 85.7579,225.713 86.5,226.5C 84.3169,229.133 83.9836,231.966 85.5,235C 87.4727,235.495 89.4727,235.662 91.5,235.5C 91.238,234.022 91.5713,232.689 92.5,231.5C 93.0014,233.655 94.0014,235.322 95.5,236.5C 113.836,236.667 132.17,236.5 150.5,236C 149.5,235.667 148.5,235.333 147.5,235C 153.157,234.501 158.824,234.334 164.5,234.5C 163.833,235.167 163.167,235.833 162.5,236.5C 156.178,237.014 149.845,237.347 143.5,237.5C 123.167,237.5 102.833,237.5 82.5,237.5C 82.5,215.5 82.5,193.5 82.5,171.5 Z"/></g>
<g><path style="opacity:0.02" fill="#ebf5fc" d="M 162.5,236.5 C 157.081,238.044 151.414,238.877 145.5,239C 124.329,239.829 103.329,239.663 82.5,238.5C 103.007,238.83 123.34,238.497 143.5,237.5C 149.845,237.347 156.178,237.014 162.5,236.5 Z"/></g>
<g><path style="opacity:0.939" fill="#587498" d="M 126.5,274.5 C 131.568,272.822 136.902,272.156 142.5,272.5C 142.5,270.167 142.5,267.833 142.5,265.5C 133.476,265.358 124.476,265.692 115.5,266.5C 115.5,281.833 115.5,297.167 115.5,312.5C 125.167,312.5 134.833,312.5 144.5,312.5C 144.5,312.833 144.5,313.167 144.5,313.5C 134.598,314.817 124.598,314.817 114.5,313.5C 114.5,297.167 114.5,280.833 114.5,264.5C 124.5,264.5 134.5,264.5 144.5,264.5C 144.5,267.833 144.5,271.167 144.5,274.5C 138.5,274.5 132.5,274.5 126.5,274.5 Z"/></g>
<g><path style="opacity:1" fill="#204e87" d="M 79.5,265.5 C 85.1409,266.487 90.1409,268.821 94.5,272.5C 95.1667,274.167 95.8333,275.833 96.5,277.5C 94.8516,276.223 93.0183,275.223 91,274.5C 90.0255,276.878 89.3589,276.544 89,273.5C 87.331,275.169 86.4977,277.169 86.5,279.5C 85.3951,278.4 84.0618,277.733 82.5,277.5C 81.5084,277.672 80.8417,277.338 80.5,276.5C 79.7375,275.732 78.7375,275.232 77.5,275C 73.5138,274.501 69.5138,274.334 65.5,274.5C 72.0367,273.799 78.7034,273.132 85.5,272.5C 85.8333,272.167 86.1667,271.833 86.5,271.5C 85.7579,270.713 84.9246,270.047 84,269.5C 80.5533,272.192 78.7199,271.192 78.5,266.5C 71.1667,266.5 63.8333,266.5 56.5,266.5C 56.8284,278.678 56.4951,290.678 55.5,302.5C 55.5,290.167 55.5,277.833 55.5,265.5C 63.5,265.5 71.5,265.5 79.5,265.5 Z"/></g>
<g><path style="opacity:0.192" fill="#c9d7e5" d="M 227.5,264.5 C 229.326,266.147 230.66,268.147 231.5,270.5C 229.178,269.198 227.845,267.198 227.5,264.5 Z"/></g>
<g><path style="opacity:1" fill="#1b4d87" d="M 126.5,274.5 C 125.527,276.948 125.194,279.615 125.5,282.5C 124.883,282.389 124.383,282.056 124,281.5C 123.774,278.905 123.274,276.405 122.5,274C 124.953,272.152 125.953,269.652 125.5,266.5C 122.09,266.384 120.756,268.05 121.5,271.5C 120.5,271.5 119.5,271.5 118.5,271.5C 118.8,274.269 119.8,276.769 121.5,279C 121.182,281.375 119.849,282.542 117.5,282.5C 117.589,285.709 117.256,288.875 116.5,292C 117.349,298.254 119.016,304.088 121.5,309.5C 128.486,310.332 135.486,310.499 142.5,310C 143.406,308.301 143.739,306.467 143.5,304.5C 138.167,304.5 132.833,304.5 127.5,304.5C 127.719,305.675 127.386,306.675 126.5,307.5C 125.548,305.955 125.215,304.288 125.5,302.5C 131.833,302.5 138.167,302.5 144.5,302.5C 144.5,305.833 144.5,309.167 144.5,312.5C 134.833,312.5 125.167,312.5 115.5,312.5C 115.5,297.167 115.5,281.833 115.5,266.5C 124.476,265.692 133.476,265.358 142.5,265.5C 142.5,267.833 142.5,270.167 142.5,272.5C 136.902,272.156 131.568,272.822 126.5,274.5 Z"/></g>
<g><path style="opacity:0.011" fill="#fafefe" d="M 255.5,270.5 C 256.661,284.327 256.827,298.327 256,312.5C 254.475,313.72 252.641,314.387 250.5,314.5C 248.631,314.493 246.964,314.16 245.5,313.5C 249.012,314.055 252.012,313.388 254.5,311.5C 255.496,298.01 255.829,284.344 255.5,270.5 Z"/></g>
<g><path style="opacity:0.051" fill="#dfedf5" d="M 188.5,269.5 C 189.931,270.78 190.598,272.447 190.5,274.5C 189.069,273.22 188.402,271.553 188.5,269.5 Z"/></g>
<g><path style="opacity:0.998" fill="#265181" d="M 216.5,264.5 C 220.167,264.5 223.833,264.5 227.5,264.5C 227.845,267.198 229.178,269.198 231.5,270.5C 232.383,273.704 234.05,276.371 236.5,278.5C 237.338,278.842 237.672,279.508 237.5,280.5C 233.176,279.27 230.676,276.27 230,271.5C 227.852,270.195 226.352,268.362 225.5,266C 222.854,265.503 220.187,265.336 217.5,265.5C 217.829,278.011 217.495,290.345 216.5,302.5C 216.5,289.833 216.5,277.167 216.5,264.5 Z"/></g>
<g><path style="opacity:0.018" fill="#f9feff" d="M 243.5,264.5 C 244.132,272.573 243.465,280.24 241.5,287.5C 241.5,287.167 241.5,286.833 241.5,286.5C 242.167,279.167 242.833,271.833 243.5,264.5 Z"/></g>
<g><path style="opacity:0.269" fill="#c2d7eb" d="M 142.5,282.5 C 136.833,282.5 131.167,282.5 125.5,282.5C 125.194,279.615 125.527,276.948 126.5,274.5C 132.5,274.5 138.5,274.5 144.5,274.5C 144.5,271.167 144.5,267.833 144.5,264.5C 134.5,264.5 124.5,264.5 114.5,264.5C 114.5,280.833 114.5,297.167 114.5,313.5C 113.503,297.008 113.17,280.342 113.5,263.5C 124.167,263.5 134.833,263.5 145.5,263.5C 145.5,267.5 145.5,271.5 145.5,275.5C 139.491,275.334 133.491,275.501 127.5,276C 126.594,277.699 126.261,279.533 126.5,281.5C 132.026,281.179 137.36,281.512 142.5,282.5 Z"/></g>
<g><path style="opacity:0.773" fill="#476c92" d="M 216.5,264.5 C 216.5,277.167 216.5,289.833 216.5,302.5C 216.19,305.713 216.523,308.713 217.5,311.5C 217.5,311.833 217.5,312.167 217.5,312.5C 216.833,312.5 216.167,312.5 215.5,312.5C 215.17,296.325 215.504,280.325 216.5,264.5 Z"/></g>
<g><path style="opacity:0.252" fill="#b9cce2" d="M 94.5,272.5 C 90.1409,268.821 85.1409,266.487 79.5,265.5C 71.3501,264.507 63.0168,264.174 54.5,264.5C 54.5,280.5 54.5,296.5 54.5,312.5C 62.8333,312.5 71.1667,312.5 79.5,312.5C 79.5,312.833 79.5,313.167 79.5,313.5C 71.1965,314.831 62.8632,314.831 54.5,313.5C 53.5005,296.847 53.1672,280.18 53.5,263.5C 62.8393,263.334 72.1726,263.5 81.5,264C 86.9968,265.392 91.3302,268.225 94.5,272.5 Z"/></g>
<g><path style="opacity:0.086" fill="#d2e1f1" d="M 94.5,272.5 C 97.4495,274.728 99.1162,277.728 99.5,281.5C 98.5,280.167 97.5,278.833 96.5,277.5C 95.8333,275.833 95.1667,274.167 94.5,272.5 Z"/></g>
<g><path style="opacity:0.148" fill="#d0e0f4" d="M 227.5,264.5 C 223.833,264.5 220.167,264.5 216.5,264.5C 215.504,280.325 215.17,296.325 215.5,312.5C 215.5,312.833 215.5,313.167 215.5,313.5C 214.503,297.008 214.17,280.342 214.5,263.5C 219.032,263.182 223.366,263.515 227.5,264.5 Z"/></g>
<g><path style="opacity:0.884" fill="#305480" d="M 79.5,265.5 C 71.5,265.5 63.5,265.5 55.5,265.5C 55.5,277.833 55.5,290.167 55.5,302.5C 55.5,305.5 55.5,308.5 55.5,311.5C 64.1667,311.5 72.8333,311.5 81.5,311.5C 81.1583,312.338 80.4916,312.672 79.5,312.5C 71.1667,312.5 62.8333,312.5 54.5,312.5C 54.5,296.5 54.5,280.5 54.5,264.5C 63.0168,264.174 71.3501,264.507 79.5,265.5 Z"/></g>
<g><path style="opacity:1" fill="#375a8b" d="M 186.5,266.5 C 186.932,267.71 187.599,268.71 188.5,269.5C 188.402,271.553 189.069,273.22 190.5,274.5C 191.404,275.209 191.737,276.209 191.5,277.5C 191.415,280.649 192.415,283.316 194.5,285.5C 195.738,287.214 196.405,289.214 196.5,291.5C 196.756,294.598 197.422,297.598 198.5,300.5C 197.542,300.047 196.708,299.381 196,298.5C 195.208,293.177 193.208,288.511 190,284.5C 188.497,278.795 186.997,273.129 185.5,267.5C 180.684,266.839 176.351,267.839 172.5,270.5C 172.5,269.833 172.5,269.167 172.5,268.5C 176.71,265.342 181.377,264.675 186.5,266.5 Z"/></g>
<g><path style="opacity:1" fill="#144a8b" d="M 237.5,280.5 C 237.427,282.027 238.094,283.027 239.5,283.5C 239.427,285.027 240.094,286.027 241.5,286.5C 241.5,286.833 241.5,287.167 241.5,287.5C 242.5,288.833 243.5,288.833 244.5,287.5C 246.026,286.508 246.693,285.008 246.5,283C 245.332,277.158 245.332,271.324 246.5,265.5C 248.709,266.106 250.876,266.773 253,267.5C 252.568,282.122 252.402,296.789 252.5,311.5C 250.052,311.99 248.385,311.157 247.5,309C 249.576,307.756 250.576,305.923 250.5,303.5C 249.5,303.5 248.5,303.5 247.5,303.5C 247.752,306.932 246.419,307.932 243.5,306.5C 242.6,303.162 241.6,300.495 240.5,298.5C 238.678,298.169 237.011,297.502 235.5,296.5C 233.847,293.869 232.181,291.203 230.5,288.5C 230.663,286.143 230.497,283.81 230,281.5C 228.416,282.861 226.582,283.528 224.5,283.5C 224.5,292.833 224.5,302.167 224.5,311.5C 222.167,311.5 219.833,311.5 217.5,311.5C 216.523,308.713 216.19,305.713 216.5,302.5C 217.495,290.345 217.829,278.011 217.5,265.5C 220.187,265.336 222.854,265.503 225.5,266C 226.352,268.362 227.852,270.195 230,271.5C 230.676,276.27 233.176,279.27 237.5,280.5 Z"/></g>
<g><path style="opacity:0.275" fill="#bccee2" d="M 237.5,280.5 C 238.906,280.973 239.573,281.973 239.5,283.5C 238.094,283.027 237.427,282.027 237.5,280.5 Z"/></g>
<g><path style="opacity:0.078" fill="#d4e4f2" d="M 231.5,270.5 C 233.95,272.629 235.617,275.296 236.5,278.5C 234.05,276.371 232.383,273.704 231.5,270.5 Z"/></g>
<g><path style="opacity:0.059" fill="#d0e4f0" d="M 191.5,277.5 C 193.02,279.89 194.02,282.557 194.5,285.5C 192.415,283.316 191.415,280.649 191.5,277.5 Z"/></g>
<g><path style="opacity:0.235" fill="#c4d2e8" d="M 239.5,283.5 C 240.906,283.973 241.573,284.973 241.5,286.5C 240.094,286.027 239.427,285.027 239.5,283.5 Z"/></g>
<g><path style="opacity:1" fill="#274e83" d="M 96.5,277.5 C 97.5,278.833 98.5,280.167 99.5,281.5C 99.5,285.167 99.5,288.833 99.5,292.5C 98.2886,298.592 95.2886,303.592 90.5,307.5C 91.382,304.844 92.7153,302.344 94.5,300C 94.1667,299.667 93.8333,299.333 93.5,299C 97.0511,297.323 98.3845,294.49 97.5,290.5C 96.1667,290.5 94.8333,290.5 93.5,290.5C 95.5912,286.465 96.5912,282.132 96.5,277.5 Z"/></g>
<g><path style="opacity:1" fill="#134a8b" d="M 65.5,274.5 C 64.5,274.5 63.5,274.5 62.5,274.5C 62.3336,283.506 62.5002,292.506 63,301.5C 63.6667,302.833 64.3333,304.167 65,305.5C 69.7488,304.695 74.5821,304.195 79.5,304C 81.9102,303.943 83.2435,302.776 83.5,300.5C 86.0439,299.532 88.2105,297.865 90,295.5C 90.8283,290.798 90.6616,286.131 89.5,281.5C 88.5832,280.873 87.5832,280.539 86.5,280.5C 86.5,280.167 86.5,279.833 86.5,279.5C 86.4977,277.169 87.331,275.169 89,273.5C 89.3589,276.544 90.0255,276.878 91,274.5C 93.0183,275.223 94.8516,276.223 96.5,277.5C 96.5912,282.132 95.5912,286.465 93.5,290.5C 94.8333,290.5 96.1667,290.5 97.5,290.5C 98.3845,294.49 97.0511,297.323 93.5,299C 93.8333,299.333 94.1667,299.667 94.5,300C 92.7153,302.344 91.382,304.844 90.5,307.5C 86.9983,307.076 84.665,308.41 83.5,311.5C 82.8333,311.5 82.1667,311.5 81.5,311.5C 72.8333,311.5 64.1667,311.5 55.5,311.5C 55.5,308.5 55.5,305.5 55.5,302.5C 56.4951,290.678 56.8284,278.678 56.5,266.5C 63.8333,266.5 71.1667,266.5 78.5,266.5C 78.7199,271.192 80.5533,272.192 84,269.5C 84.9246,270.047 85.7579,270.713 86.5,271.5C 86.1667,271.833 85.8333,272.167 85.5,272.5C 78.7034,273.132 72.0367,273.799 65.5,274.5 Z M 80.5,276.5 C 80.8417,277.338 81.5084,277.672 82.5,277.5C 83.5,279.167 84.8333,280.5 86.5,281.5C 87.2721,285.452 87.6054,289.452 87.5,293.5C 85.5293,295.808 83.5293,298.142 81.5,300.5C 76.547,301.329 71.547,301.663 66.5,301.5C 66.1688,293.14 66.5021,284.807 67.5,276.5C 71.7969,275.537 76.1302,275.537 80.5,276.5 Z"/></g>
<g><path style="opacity:0.494" fill="#adc8e1" d="M 82.5,277.5 C 84.0618,277.733 85.3951,278.4 86.5,279.5C 86.5,279.833 86.5,280.167 86.5,280.5C 86.5,280.833 86.5,281.167 86.5,281.5C 84.8333,280.5 83.5,279.167 82.5,277.5 Z"/></g>
<g><path style="opacity:0.031" fill="#d1e7f4" d="M 86.5,281.5 C 87.1174,281.611 87.6174,281.944 88,282.5C 88.8099,286.358 88.6433,290.024 87.5,293.5C 87.6054,289.452 87.2721,285.452 86.5,281.5 Z"/></g>
<g><path style="opacity:0.371" fill="#c9d3e7" d="M 99.5,281.5 C 101.463,284.967 101.797,288.634 100.5,292.5C 100.167,292.5 99.8333,292.5 99.5,292.5C 99.5,288.833 99.5,285.167 99.5,281.5 Z"/></g>
<g><path style="opacity:0.584" fill="#acc1d8" d="M 188.5,269.5 C 187.599,268.71 186.932,267.71 186.5,266.5C 184.777,265.2 182.61,264.533 180,264.5C 177.833,264.833 175.667,265.167 173.5,265.5C 172.873,266.417 172.539,267.417 172.5,268.5C 172.5,269.167 172.5,269.833 172.5,270.5C 167.957,281.951 163.623,293.617 159.5,305.5C 158.655,306.671 157.989,308.005 157.5,309.5C 157.167,309.5 156.833,309.5 156.5,309.5C 161.534,294.424 166.867,279.424 172.5,264.5C 177.456,263.506 182.456,263.173 187.5,263.5C 187.833,265.5 188.167,267.5 188.5,269.5 Z"/></g>
<g><path style="opacity:0.893" fill="#3e5d7f" d="M 186.5,266.5 C 181.377,264.675 176.71,265.342 172.5,268.5C 172.539,267.417 172.873,266.417 173.5,265.5C 175.667,265.167 177.833,264.833 180,264.5C 182.61,264.533 184.777,265.2 186.5,266.5 Z"/></g>
<g><path style="opacity:0.165" fill="#c7daeb" d="M 228.5,287.5 C 229.167,287.833 229.833,288.167 230.5,288.5C 232.181,291.203 233.847,293.869 235.5,296.5C 236.11,297.391 236.443,298.391 236.5,299.5C 233.34,295.852 230.673,291.852 228.5,287.5 Z"/></g>
<g><path style="opacity:0.357" fill="#9db8d5" d="M 255.5,270.5 C 255.829,284.344 255.496,298.01 254.5,311.5C 254.5,295.833 254.5,280.167 254.5,264.5C 251.167,264.5 247.833,264.5 244.5,264.5C 244.5,272.167 244.5,279.833 244.5,287.5C 243.5,288.833 242.5,288.833 241.5,287.5C 243.465,280.24 244.132,272.573 243.5,264.5C 247.298,263.517 251.298,263.183 255.5,263.5C 255.5,265.833 255.5,268.167 255.5,270.5 Z"/></g>
<g><path style="opacity:0.672" fill="#849cb8" d="M 125.5,283.5 C 125.5,283.167 125.5,282.833 125.5,282.5C 131.167,282.5 136.833,282.5 142.5,282.5C 145.167,286.167 145.167,289.833 142.5,293.5C 136.833,293.5 131.167,293.5 125.5,293.5C 130.975,292.511 136.642,292.178 142.5,292.5C 142.5,289.5 142.5,286.5 142.5,283.5C 136.833,283.5 131.167,283.5 125.5,283.5 Z"/></g>
<g><path style="opacity:1" fill="#14498c" d="M 198.5,300.5 C 199.345,301.671 200.011,303.005 200.5,304.5C 200.5,306.833 200.5,309.167 200.5,311.5C 195.895,311.133 194.895,309.3 197.5,306C 196.828,303.991 195.828,302.158 194.5,300.5C 193.914,300.709 193.414,301.043 193,301.5C 192.581,300.328 191.915,299.328 191,298.5C 190.107,299.711 189.274,299.711 188.5,298.5C 189.186,296.936 189.019,295.269 188,293.5C 186.284,289.454 184.117,285.787 181.5,282.5C 181.234,278.921 179.901,278.587 177.5,281.5C 175.375,285.712 174.042,290.212 173.5,295C 174.477,297.761 176.477,299.094 179.5,299C 176.258,299.283 175.924,300.117 178.5,301.5C 176.379,303.018 174.046,304.018 171.5,304.5C 169.912,306.113 168.912,308.113 168.5,310.5C 167.833,310.5 167.5,310.833 167.5,311.5C 165.345,311.628 163.345,311.128 161.5,310C 161.833,309.667 162.167,309.333 162.5,309C 160.937,308.241 159.937,307.074 159.5,305.5C 163.623,293.617 167.957,281.951 172.5,270.5C 176.351,267.839 180.684,266.839 185.5,267.5C 186.997,273.129 188.497,278.795 190,284.5C 193.208,288.511 195.208,293.177 196,298.5C 196.708,299.381 197.542,300.047 198.5,300.5 Z M 181.5,285.5 C 181.756,287.937 182.423,290.271 183.5,292.5C 181.167,293.833 178.833,293.833 176.5,292.5C 177.569,289.461 178.735,286.461 180,283.5C 180.278,284.416 180.778,285.082 181.5,285.5 Z"/></g>
<g><path style="opacity:0.069" fill="#c1d3e7" d="M 65.5,274.5 C 69.5138,274.334 73.5138,274.501 77.5,275C 78.7375,275.232 79.7375,275.732 80.5,276.5C 76.1302,275.537 71.7969,275.537 67.5,276.5C 66.5021,284.807 66.1688,293.14 66.5,301.5C 71.547,301.663 76.547,301.329 81.5,300.5C 81.3893,301.117 81.056,301.617 80.5,302C 75.2487,302.804 70.082,302.637 65,301.5C 64.1965,292.422 64.3631,283.422 65.5,274.5 Z"/></g>
<g><path style="opacity:0.604" fill="#b9cbe0" d="M 196.5,291.5 C 198.964,295.444 200.63,299.777 201.5,304.5C 201.167,304.5 200.833,304.5 200.5,304.5C 200.011,303.005 199.345,301.671 198.5,300.5C 197.422,297.598 196.756,294.598 196.5,291.5 Z"/></g>
<g><path style="opacity:0.691" fill="#7f95b2" d="M 226.5,286.5 C 226.5,295.5 226.5,304.5 226.5,313.5C 222.935,314.787 219.268,314.787 215.5,313.5C 215.5,313.167 215.5,312.833 215.5,312.5C 216.167,312.5 216.833,312.5 217.5,312.5C 220.167,312.5 222.833,312.5 225.5,312.5C 225.174,303.651 225.507,294.984 226.5,286.5 Z"/></g>
<g><path style="opacity:1" fill="#234f88" d="M 181.5,282.5 C 184.117,285.787 186.284,289.454 188,293.5C 189.019,295.269 189.186,296.936 188.5,298.5C 189.274,299.711 190.107,299.711 191,298.5C 191.915,299.328 192.581,300.328 193,301.5C 193.414,301.043 193.914,300.709 194.5,300.5C 195.828,302.158 196.828,303.991 197.5,306C 194.895,309.3 195.895,311.133 200.5,311.5C 200.5,309.167 200.5,306.833 200.5,304.5C 200.833,304.5 201.167,304.5 201.5,304.5C 202.404,305.209 202.737,306.209 202.5,307.5C 202.5,309.167 202.5,310.833 202.5,312.5C 199.15,312.665 195.817,312.498 192.5,312C 191.432,309.562 190.098,307.395 188.5,305.5C 183.025,304.511 177.358,304.178 171.5,304.5C 174.046,304.018 176.379,303.018 178.5,301.5C 175.924,300.117 176.258,299.283 179.5,299C 176.477,299.094 174.477,297.761 173.5,295C 174.042,290.212 175.375,285.712 177.5,281.5C 179.901,278.587 181.234,278.921 181.5,282.5 Z M 181.5,285.5 C 180.778,285.082 180.278,284.416 180,283.5C 178.735,286.461 177.569,289.461 176.5,292.5C 178.833,293.833 181.167,293.833 183.5,292.5C 182.423,290.271 181.756,287.937 181.5,285.5 Z"/></g>
<g><path style="opacity:0.243" fill="#b1cae4" d="M 181.5,282.5 C 181.5,283.5 181.5,284.5 181.5,285.5C 183.868,287.956 184.868,290.956 184.5,294.5C 181.5,294.5 178.5,294.5 175.5,294.5C 175.726,290.708 176.56,287.041 178,283.5C 179.011,282.663 180.178,282.33 181.5,282.5 Z M 181.5,285.5 C 180.778,285.082 180.278,284.416 180,283.5C 178.735,286.461 177.569,289.461 176.5,292.5C 178.833,293.833 181.167,293.833 183.5,292.5C 182.423,290.271 181.756,287.937 181.5,285.5 Z"/></g>
<g><path style="opacity:0.98" fill="#1f4a7f" d="M 230.5,288.5 C 229.833,288.167 229.167,287.833 228.5,287.5C 228.289,285.576 227.623,285.243 226.5,286.5C 225.507,294.984 225.174,303.651 225.5,312.5C 222.833,312.5 220.167,312.5 217.5,312.5C 217.5,312.167 217.5,311.833 217.5,311.5C 219.833,311.5 222.167,311.5 224.5,311.5C 224.5,302.167 224.5,292.833 224.5,283.5C 226.582,283.528 228.416,282.861 230,281.5C 230.497,283.81 230.663,286.143 230.5,288.5 Z"/></g>
<g><path style="opacity:1" fill="#1e4e83" d="M 125.5,283.5 C 131.167,283.5 136.833,283.5 142.5,283.5C 142.5,286.5 142.5,289.5 142.5,292.5C 136.642,292.178 130.975,292.511 125.5,293.5C 125.5,296.5 125.5,299.5 125.5,302.5C 123.491,300.831 121.491,299.164 119.5,297.5C 120.262,297.089 121.262,296.923 122.5,297C 122.167,296.667 121.833,296.333 121.5,296C 123.327,293.758 124.994,291.425 126.5,289C 128.743,289.931 131.243,290.431 134,290.5C 136.47,290.66 138.636,289.993 140.5,288.5C 139.833,287.5 139.167,286.5 138.5,285.5C 134.018,284.833 129.684,284.166 125.5,283.5 Z"/></g>
<g><path style="opacity:0.239" fill="#c8d9ed" d="M 87.5,293.5 C 87.0387,296.303 85.7053,298.637 83.5,300.5C 82.8333,300.5 82.1667,300.5 81.5,300.5C 83.5293,298.142 85.5293,295.808 87.5,293.5 Z"/></g>
<g><path style="opacity:1" fill="#355889" d="M 86.5,281.5 C 86.5,281.167 86.5,280.833 86.5,280.5C 87.5832,280.539 88.5832,280.873 89.5,281.5C 90.6616,286.131 90.8283,290.798 90,295.5C 88.2105,297.865 86.0439,299.532 83.5,300.5C 85.7053,298.637 87.0387,296.303 87.5,293.5C 88.6433,290.024 88.8099,286.358 88,282.5C 87.6174,281.944 87.1174,281.611 86.5,281.5 Z"/></g>
<g><path style="opacity:0.078" fill="#dcecfc" d="M 228.5,287.5 C 227.833,296.167 227.167,304.833 226.5,313.5C 226.5,304.5 226.5,295.5 226.5,286.5C 227.623,285.243 228.289,285.576 228.5,287.5 Z"/></g>
<g><path style="opacity:0.114" fill="#d5e6f3" d="M 125.5,293.5 C 131.167,293.5 136.833,293.5 142.5,293.5C 137.36,294.488 132.026,294.821 126.5,294.5C 126.5,296.833 126.5,299.167 126.5,301.5C 132.842,301.334 139.175,301.5 145.5,302C 146.081,305.02 146.415,308.02 146.5,311C 145.934,311.995 145.267,312.828 144.5,313.5C 144.5,313.167 144.5,312.833 144.5,312.5C 144.5,309.167 144.5,305.833 144.5,302.5C 138.167,302.5 131.833,302.5 125.5,302.5C 125.5,299.5 125.5,296.5 125.5,293.5 Z"/></g>
<g><path style="opacity:0.98" fill="#255082" d="M 65.5,274.5 C 64.3631,283.422 64.1965,292.422 65,301.5C 70.082,302.637 75.2487,302.804 80.5,302C 81.056,301.617 81.3893,301.117 81.5,300.5C 82.1667,300.5 82.8333,300.5 83.5,300.5C 83.2435,302.776 81.9102,303.943 79.5,304C 74.5821,304.195 69.7488,304.695 65,305.5C 64.3333,304.167 63.6667,302.833 63,301.5C 62.5002,292.506 62.3336,283.506 62.5,274.5C 63.5,274.5 64.5,274.5 65.5,274.5 Z"/></g>
<g><path style="opacity:0.18" fill="#c8dcee" d="M 171.5,304.5 C 177.358,304.178 183.025,304.511 188.5,305.5C 183.156,305.334 177.823,305.501 172.5,306C 171.067,308.173 169.734,310.34 168.5,312.5C 168.5,311.833 168.5,311.167 168.5,310.5C 168.912,308.113 169.912,306.113 171.5,304.5 Z"/></g>
<g><path style="opacity:0.196" fill="#c4d3e4" d="M 236.5,299.5 C 239.579,302.65 241.913,306.317 243.5,310.5C 240.421,307.35 238.087,303.683 236.5,299.5 Z"/></g>
<g><path style="opacity:0.051" fill="#d3e1ef" d="M 99.5,292.5 C 99.8333,292.5 100.167,292.5 100.5,292.5C 99.5756,301.033 95.2423,307.033 87.5,310.5C 88.3065,309.272 89.3065,308.272 90.5,307.5C 95.2886,303.592 98.2886,298.592 99.5,292.5 Z"/></g>
<g><path style="opacity:1" fill="#275082" d="M 254.5,311.5 C 252.012,313.388 249.012,314.055 245.5,313.5C 245.573,311.973 244.906,310.973 243.5,310.5C 241.913,306.317 239.579,302.65 236.5,299.5C 236.443,298.391 236.11,297.391 235.5,296.5C 237.011,297.502 238.678,298.169 240.5,298.5C 241.6,300.495 242.6,303.162 243.5,306.5C 246.419,307.932 247.752,306.932 247.5,303.5C 248.5,303.5 249.5,303.5 250.5,303.5C 250.576,305.923 249.576,307.756 247.5,309C 248.385,311.157 250.052,311.99 252.5,311.5C 252.402,296.789 252.568,282.122 253,267.5C 250.876,266.773 248.709,266.106 246.5,265.5C 245.332,271.324 245.332,277.158 246.5,283C 246.693,285.008 246.026,286.508 244.5,287.5C 244.5,279.833 244.5,272.167 244.5,264.5C 247.833,264.5 251.167,264.5 254.5,264.5C 254.5,280.167 254.5,295.833 254.5,311.5 Z"/></g>
<g><path style="opacity:1" fill="#12498d" d="M 125.5,282.5 C 125.5,282.833 125.5,283.167 125.5,283.5C 129.684,284.166 134.018,284.833 138.5,285.5C 139.167,286.5 139.833,287.5 140.5,288.5C 138.636,289.993 136.47,290.66 134,290.5C 131.243,290.431 128.743,289.931 126.5,289C 124.994,291.425 123.327,293.758 121.5,296C 121.833,296.333 122.167,296.667 122.5,297C 121.262,296.923 120.262,297.089 119.5,297.5C 121.491,299.164 123.491,300.831 125.5,302.5C 125.215,304.288 125.548,305.955 126.5,307.5C 127.386,306.675 127.719,305.675 127.5,304.5C 132.833,304.5 138.167,304.5 143.5,304.5C 143.739,306.467 143.406,308.301 142.5,310C 135.486,310.499 128.486,310.332 121.5,309.5C 119.016,304.088 117.349,298.254 116.5,292C 117.256,288.875 117.589,285.709 117.5,282.5C 119.849,282.542 121.182,281.375 121.5,279C 119.8,276.769 118.8,274.269 118.5,271.5C 119.5,271.5 120.5,271.5 121.5,271.5C 120.756,268.05 122.09,266.384 125.5,266.5C 125.953,269.652 124.953,272.152 122.5,274C 123.274,276.405 123.774,278.905 124,281.5C 124.383,282.056 124.883,282.389 125.5,282.5 Z"/></g>
<g><path style="opacity:0.29" fill="#a8bdd2" d="M 188.5,305.5 C 190.098,307.395 191.432,309.562 192.5,312C 195.817,312.498 199.15,312.665 202.5,312.5C 199.375,313.479 196.042,313.813 192.5,313.5C 190.229,311.388 188.896,308.721 188.5,305.5 Z"/></g>
<g><path style="opacity:0.902" fill="#537091" d="M 90.5,307.5 C 89.3065,308.272 88.3065,309.272 87.5,310.5C 87.1583,311.338 86.4916,311.672 85.5,311.5C 84.8333,311.5 84.1667,311.5 83.5,311.5C 84.665,308.41 86.9983,307.076 90.5,307.5 Z"/></g>
<g><path style="opacity:0.987" fill="#244976" d="M 159.5,305.5 C 159.937,307.074 160.937,308.241 162.5,309C 162.167,309.333 161.833,309.667 161.5,310C 163.345,311.128 165.345,311.628 167.5,311.5C 164.375,312.479 161.042,312.813 157.5,312.5C 157.5,311.5 157.5,310.5 157.5,309.5C 157.989,308.005 158.655,306.671 159.5,305.5 Z"/></g>
<g><path style="opacity:0.043" fill="#cfe6ef" d="M 243.5,310.5 C 244.906,310.973 245.573,311.973 245.5,313.5C 244.094,313.027 243.427,312.027 243.5,310.5 Z"/></g>
<g><path style="opacity:0.078" fill="#d3e4f7" d="M 81.5,311.5 C 82.1667,311.5 82.8333,311.5 83.5,311.5C 84.1667,311.5 84.8333,311.5 85.5,311.5C 83.7857,312.738 81.7857,313.405 79.5,313.5C 79.5,313.167 79.5,312.833 79.5,312.5C 80.4916,312.672 81.1583,312.338 81.5,311.5 Z"/></g>
<g><path style="opacity:0.608" fill="#abb9cc" d="M 156.5,309.5 C 156.833,309.5 157.167,309.5 157.5,309.5C 157.5,310.5 157.5,311.5 157.5,312.5C 161.042,312.813 164.375,312.479 167.5,311.5C 167.5,310.833 167.833,310.5 168.5,310.5C 168.5,311.167 168.5,311.833 168.5,312.5C 168.389,313.117 168.056,313.617 167.5,314C 163.833,314.667 160.167,314.667 156.5,314C 155.199,312.384 155.199,310.884 156.5,309.5 Z"/></g>
<g><path style="opacity:0.035" fill="#e1f2f6" d="M 202.5,307.5 C 204.509,309.378 204.842,311.544 203.5,314C 199.642,314.81 195.976,314.643 192.5,313.5C 196.042,313.813 199.375,313.479 202.5,312.5C 202.5,310.833 202.5,309.167 202.5,307.5 Z"/></g>
</svg>
